Coordinates
version=1
nRows=26
nColumns=24
inDegrees=yes

Units are S.I. units (second, meters, Newtons, ...)
Angles are in degrees.

endheader
time	pelvis_tilt	pelvis_list	pelvis_rotation	pelvis_tx	pelvis_ty	pelvis_tz	hip_flexion_r	hip_adduction_r	hip_rotation_r	knee_angle_r	ankle_angle_r	subtalar_angle_r	mtp_angle_r	hip_flexion_l	hip_adduction_l	hip_rotation_l	knee_angle_l	ankle_angle_l	subtalar_angle_l	mtp_angle_l	lumbar_extension	lumbar_bending	lumbar_rotation
      3.69000000	     -9.60607610	      6.31440390	    359.77805865	      0.55904515	      1.36991420	     -1.02880928	      5.48317437	     -5.29795728	      2.35278377	    -36.56889159	     -0.19698353	     -0.85386538	     23.37580392	     25.06566103	      9.67646021	      3.00519017	     -6.11611919	    -14.15834243	     -9.45628718	     29.08121278	     -5.00143593	     -3.67619127	     15.16419872
      3.69500000	     -9.48670021	      6.48493351	    359.82167361	      0.56456184	      1.37043942	     -1.02956787	      6.10770182	     -5.59265808	      2.35078154	    -38.22921871	     -1.19523662	     -0.65529296	     24.14856907	     24.91275882	      9.93180903	      3.05707882	     -6.71993427	    -13.77623681	     -9.37730299	     28.30326452	     -5.11703885	     -3.88385914	     15.00781285
      3.70000000	     -9.40112229	      6.66024731	    359.87049288	      0.57004680	      1.37089082	     -1.03035199	      6.78947882	     -5.89907520	      2.35296611	    -39.88999454	     -2.01074450	     -0.27816302	     24.68924619	     24.79073743	     10.19532599	      3.08341640	     -7.30135400	    -13.39624360	     -9.28225791	     27.68426532	     -5.17836396	     -4.10680370	     14.91489707
      3.70500000	     -9.30128447	      6.81605888	    359.91159247	      0.57547451	      1.37134497	     -1.03111376	      7.46369076	     -6.17084176	      2.39084817	    -41.50575952	     -2.77800233	     -0.02178276	     25.15809141	     24.64221785	     10.43751244	      3.06685244	     -7.86009485	    -12.96554993	     -9.10278188	     26.94055638	     -5.26051930	     -4.29807542	     14.79015693
      3.71000000	     -9.16956356	      6.95865930	    359.94305669	      0.58085253	      1.37181535	     -1.03185563	      8.10477610	     -6.41993101	      2.45309909	    -43.06954965	     -3.40432573	      0.24827010	     25.49649128	     24.44050439	     10.66401185	      3.01104916	     -8.37639736	    -12.51619158	     -8.87010321	     26.23326443	     -5.37927873	     -4.47470418	     14.67349742
      3.71500000	     -9.05413677	      7.07753748	    359.96818612	      0.58618516	      1.37226573	     -1.03258973	      8.76425579	     -6.63185219	      2.54009529	    -44.57745669	     -3.90239551	      0.48822332	     25.74190862	     24.24171362	     10.86422632	      2.92732811	     -8.85780665	    -12.06196503	     -8.61204442	     25.54042571	     -5.47351603	     -4.62552711	     14.58125289
      3.72000000	     -8.89141053	      7.17449657	    359.97830172	      0.59145857	      1.37276755	     -1.03329643	      9.36525893	     -6.80666395	      2.65059523	    -46.01070854	     -4.25302855	      0.68453216	     25.91045621	     23.96726062	     11.03885228	      2.81842354	     -9.28815159	    -11.59258841	     -8.32402902	     24.83117039	     -5.62727423	     -4.74645152	     14.47866994
      3.72500000	     -8.75704251	      7.23968665	    359.98812132	      0.59667870	      1.37324286	     -1.03401864	      9.99593509	     -6.94335021	      2.75575055	    -47.38245773	     -4.48413759	      0.87871968	     26.03092584	     23.71112003	     11.18084197	      2.67616516	     -9.68104670	    -11.18612446	     -8.05268077	     24.25649276	     -5.73862688	     -4.82700664	     14.40218338
      3.73000000	     -8.61591564	      7.27158992	    359.98725488	      0.60185379	      1.37373226	     -1.03470677	     10.60917719	     -7.02243175	      2.89450107	    -48.67527744	     -4.58482317	      0.99639702	     26.12063816	     23.42242923	     11.28602633	      2.57359331	    -10.02893429	    -10.70871890	     -7.74630643	     23.59428114	     -5.85445927	     -4.87656620	     14.33331747
      3.73500000	     -8.46746966	      7.26345824	    359.97532431	      0.60695266	      1.37425349	     -1.03539181	     11.20918244	     -7.04965838	      3.02906057	    -49.88899841	     -4.56234624	      1.05239295	     26.18832584	     23.11412737	     11.34857830	      2.44202540	    -10.34527651	    -10.27897179	     -7.47615231	     22.95879353	     -5.98418515	     -4.87240468	     14.28140676
      3.74000000	     -8.32138299	      7.24354673	    359.95628583	      0.61202129	      1.37477701	     -1.03605969	     11.80700057	     -7.05871624	      3.15946280	    -51.03212853	     -4.45749593	      1.08757671	     26.25435075	     22.78403429	     11.39697669	      2.32018423	    -10.60820203	     -9.88367849	     -7.24142700	     22.42382533	     -6.10460744	     -4.85480461	     14.23083498
      3.74500000	     -8.19494361	      7.18416713	    359.92963016	      0.61702067	      1.37529470	     -1.03671556	     12.42353853	     -7.01360570	      3.28771697	    -52.10312172	     -4.25526446	      1.02210472	     26.30742666	     22.46643177	     11.40435469	      2.22033749	    -10.84965142	     -9.50444911	     -7.05756198	     21.86157218	     -6.20353145	     -4.79109575	     14.20095601
      3.75000000	     -8.05123591	      7.10372439	    359.89066728	      0.62195692	      1.37585928	     -1.03733475	     13.01621614	     -6.93842162	      3.40690126	    -53.09428622	     -3.97990629	      0.90672971	     26.36244112	     22.11528644	     11.38589610	      2.11388962	    -11.05321727	     -9.19510627	     -6.93951161	     21.37329852	     -6.33145700	     -4.70015938	     14.15053281
      3.75500000	     -7.94911402	      6.98653879	    359.85898850	      0.62688664	      1.37638673	     -1.03796640	     13.64282329	     -6.81867633	      3.50792558	    -54.00976978	     -3.62629624	      0.72049728	     26.40428830	     21.79253865	     11.33617784	      2.10133627	    -11.23496560	     -8.82964261	     -6.84796422	     20.82999822	     -6.39465813	     -4.57146922	     14.12726702
      3.76000000	     -7.81239418	      6.86292075	    359.81205320	      0.63175648	      1.37696529	     -1.03855756	     14.22778061	     -6.68770236	      3.59906962	    -54.84741938	     -3.22351454	      0.48635426	     26.43752857	     21.41781837	     11.27601694	      2.09314462	    -11.38099625	     -8.52075972	     -6.82819948	     20.32130260	     -6.50549074	     -4.43431769	     14.10083631
      3.76500000	     -7.69661293	      6.72305355	    359.75987066	      0.63657635	      1.37753987	     -1.03911011	     14.83466879	     -6.53320374	      3.67565799	    -55.61548244	     -2.78674723	      0.18775206	     26.46596333	     21.06384759	     11.19546225	      2.09954868	    -11.51569210	     -8.26652542	     -6.88195151	     19.93020272	     -6.59833828	     -4.27637451	     14.05400311
      3.77000000	     -7.62080494	      6.56478386	    359.71454237	      0.64140105	      1.37808753	     -1.03965867	     15.47429221	     -6.35796627	      3.73131068	    -56.30846427	     -2.30800828	     -0.14705228	     26.48029302	     20.74326363	     11.09936532	      2.17771127	    -11.64096477	     -7.98313289	     -6.96495134	     19.49703572	     -6.63522612	     -4.10287239	     14.01319349
      3.77500000	     -7.51113114	      6.40095709	    359.65753371	      0.64619100	      1.37868780	     -1.04016979	     16.06804772	     -6.17512034	      3.77515466	    -56.91866602	     -1.80709525	     -0.47938687	     26.47906429	     20.37751506	     10.99474999	      2.27667193	    -11.75312133	     -7.67197442	     -7.06269443	     19.01770508	     -6.71515828	     -3.92054565	     13.96719512
      3.78000000	     -7.40762319	      6.24564585	    359.57476355	      0.65097540	      1.37929351	     -1.04057862	     16.66711192	     -5.98320604	      3.83781756	    -57.45792526	     -1.30072171	     -0.89547887	     26.46769819	     20.00601341	     10.88214898	      2.35730353	    -11.82955412	     -7.45231392	     -7.23474287	     18.78455090	     -6.78539998	     -3.74845043	     13.88681472
      3.78500000	     -7.33351331	      6.05890017	    359.53139509	      0.65574924	      1.37988032	     -1.04105058	     17.27697135	     -5.77662986	      3.82810842	    -57.91413522	     -0.79434186	     -1.32472556	     26.41583647	     19.67466901	     10.75582823	      2.53600768	    -11.93989730	     -7.17549232	     -7.43046799	     18.42875668	     -6.81853527	     -3.54549767	     13.81782835
      3.79000000	     -7.27641498	      5.89545240	    359.49551280	      0.66049333	      1.38045245	     -1.04148732	     17.90127993	     -5.60261410	      3.79642181	    -58.31023256	     -0.20652622	     -1.65277999	     26.31976599	     19.37216873	     10.65158013	      2.70742109	    -12.07841213	     -6.84178140	     -7.51112492	     17.83897418	     -6.83726998	     -3.37932728	     13.73729114
      3.79500000	     -7.18445906	      5.71382900	    359.42339938	      0.66525484	      1.38108883	     -1.04181869	     18.47305629	     -5.38421663	      3.79209890	    -58.60825806	      0.28691959	     -2.10724496	     26.24748603	     19.01225418	     10.50750721	      2.85106796	    -12.16951707	     -6.58727435	     -7.68448136	     17.64995702	     -6.89064078	     -3.18639219	     13.64223194
      3.80000000	     -7.13722489	      5.52697191	    359.38807819	      0.67001604	      1.38168733	     -1.04217375	     19.07661787	     -5.17512389	      3.73455891	    -58.83698300	      0.79312109	     -2.52563694	     26.12530959	     18.71235850	     10.36854759	      3.04861835	    -12.29651055	     -6.29057924	     -7.82815909	     17.34600862	     -6.89379801	     -2.99261323	     13.51243933
      3.80500000	     -7.06960500	      5.37362322	    359.34790676	      0.67478475	      1.38229602	     -1.04247551	     19.64718672	     -5.00457379	      3.67235735	    -58.99954119	      1.35899430	     -2.85020990	     25.91975270	     18.38515406	     10.25708189	      3.20441386	    -12.42085475	     -5.93512109	     -7.85485132	     16.86360983	     -6.91372770	     -2.84397688	     13.37067527
      3.81000000	     -6.99139392	      5.17151687	    359.30194910	      0.67954996	      1.38296154	     -1.04274291	     20.18166464	     -4.77131120	      3.60413628	    -59.05689794	      1.81990322	     -3.20530858	     25.81603925	     18.04317087	     10.08466052	      3.35626003	    -12.53691514	     -5.61973166	     -7.92079813	     16.73545776	     -6.94599747	     -2.64659467	     13.27354022
      3.81500000	     -6.89021291	      5.01397260	    359.26926544	      0.68430391	      1.38362106	     -1.04296666	     20.68021242	     -4.59244167	      3.51584622	    -59.05835938	      2.33452322	     -3.52432654	     25.55683928	     17.67583266	      9.95677162	      3.46872691	    -12.65962633	     -5.24262192	     -7.84839915	     16.36855276	     -7.01464765	     -2.49583486	     13.07873573
